<?xml version="1.0" encoding="UTF-8" standalone="no"?>
<!-- Generator: Adobe Illustrator 16.0.4, SVG Export Plug-In . SVG Version: 6.00 Build 0)  -->

<svg
   xmlns:dc="http://purl.org/dc/elements/1.1/"
   xmlns:cc="http://creativecommons.org/ns#"
   xmlns:rdf="http://www.w3.org/1999/02/22-rdf-syntax-ns#"
   xmlns:svg="http://www.w3.org/2000/svg"
   xmlns="http://www.w3.org/2000/svg"
   xmlns:sodipodi="http://sodipodi.sourceforge.net/DTD/sodipodi-0.dtd"
   xmlns:inkscape="http://www.inkscape.org/namespaces/inkscape"
   version="1.1"
   id="Capa_1"
   x="0px"
   y="0px"
   width="11.271px"
   height="15px"
   viewBox="0 0 11.271 15"
   style="enable-background:new 0 0 11.271 15;"
   xml:space="preserve"
   inkscape:version="0.48.5 r10040"
   sodipodi:docname="logo.svg"><metadata
     id="metadata39"><rdf:RDF><cc:Work
         rdf:about=""><dc:format>image/svg+xml</dc:format><dc:type
           rdf:resource="http://purl.org/dc/dcmitype/StillImage" /></cc:Work></rdf:RDF></metadata><defs
     id="defs37" /><sodipodi:namedview
     pagecolor="#ffffff"
     bordercolor="#666666"
     borderopacity="1"
     objecttolerance="10"
     gridtolerance="10"
     guidetolerance="10"
     inkscape:pageopacity="0"
     inkscape:pageshadow="2"
     inkscape:window-width="902"
     inkscape:window-height="528"
     id="namedview35"
     showgrid="false"
     inkscape:zoom="15.733333"
     inkscape:cx="5.6355"
     inkscape:cy="6.9915254"
     inkscape:window-x="0"
     inkscape:window-y="27"
     inkscape:window-maximized="0"
     inkscape:current-layer="Capa_1" /><path
     style="fill:#fcaf3e"
     d="M 8.485,8.355 C 8.485,8.127 9.464,5.095 7.558,4.178 5.362,3.121 4.754,2.279 4.773,0.928 4.771,0.983 3.445,3.121 4.308,4.178 5.65,5.813 5.083,7.079 4.308,6.963 3.007,6.768 3.164,5.07 3.381,4.642 2.7,4.57 1.913,4.993 1.523,5.57 0.352,7.31 2.89,8.974 1.988,10.212 1.301,11.154 0.128,9.299 0.132,9.284 -1.262,16.558 8.859,16.743 9.415,10.677 9.581,8.858 11.219,7.868 11.271,7.892 9.527,7.086 8.485,8.413 8.485,8.355 z"
     id="path3055" /><path
     style="fill:#fce94f"
     d="M 5.237,13.461 C 2.804,13.552 3.053,11.727 3.381,11.14 3.795,10.393 4.844,10.245 4.309,9.283 c 0.007,0.014 1.139,0.185 1.856,0.928 1.101,1.137 0.976,3.179 -0.928,3.25 z"
     id="path3053" /><path
     style="fill:#f57900"
     d="M 6.63,2.321 C 6.346,2.016 6.165,1.65 6.165,1.392 6.165,0.909 6.56,0.445 7.094,0 c 0.054,0.387 -0.231,0.967 0,1.392 0.18,0.315 0.465,0.671 0.465,0.929 0,0.345 -0.129,0.66 -0.465,0.928 C 7.043,3.12 6.954,2.696 6.63,2.321 z"
     id="path3" /><g
     id="g5" /><g
     id="g7" /><g
     id="g9" /><g
     id="g11" /><g
     id="g13" /><g
     id="g15" /><g
     id="g17" /><g
     id="g19" /><g
     id="g21" /><g
     id="g23" /><g
     id="g25" /><g
     id="g27" /><g
     id="g29" /><g
     id="g31" /><g
     id="g33" /></svg>